<svg xmlns="http://www.w3.org/2000/svg" version="1.1" xmlns:xlink="http://www.w3.org/1999/xlink" xmlns:svgjs="http://svgjs.dev/svgjs" width="1500" height="272" viewBox="0 0 1500 272"><g transform="matrix(1,0,0,1,-0.9090909090909918,-0.8318200761095227)"><svg viewBox="0 0 396 72" data-background-color="#ffffff" preserveAspectRatio="xMidYMid meet" height="272" width="1500" xmlns="http://www.w3.org/2000/svg" xmlns:xlink="http://www.w3.org/1999/xlink"><g id="tight-bounds" transform="matrix(1,0,0,1,0.2400000000000091,0.22018766720546523)"><svg viewBox="0 0 395.52 71.55962466558908" height="71.55962466558908" width="395.52"><g><svg viewBox="0 0 490.06282741853613 88.66482603314068" height="71.55962466558908" width="395.52"><g transform="matrix(1,0,0,1,94.54282741853615,12.253966550166332)"><svg viewBox="0 0 395.52 64.15689293280802" height="64.15689293280802" width="395.52"><g id="textblocktransform"><svg viewBox="0 0 395.52 64.15689293280802" height="64.15689293280802" width="395.52" id="textblock"><g><svg viewBox="0 0 395.52 34.38064308892458" height="34.38064308892458" width="395.52"><g transform="matrix(1,0,0,1,0,0)"><svg width="395.52" viewBox="2.36 -36.86 541.66 47.09" height="34.38064308892458" data-palette-color="#0d1321"><path d="M35.76-23.19L35.76-23.19 26.88-23.19Q26.7-24.56 26.15-25.66 25.6-26.76 24.7-27.54 23.79-28.32 22.56-28.74 21.32-29.15 19.83-29.15L19.83-29.15Q17.19-29.15 15.28-27.86 13.37-26.56 12.35-24.11 11.33-21.66 11.33-18.18L11.33-18.18Q11.33-14.56 12.37-12.12 13.41-9.68 15.3-8.44 17.19-7.21 19.78-7.21L19.78-7.21Q21.24-7.21 22.43-7.58 23.63-7.95 24.55-8.67 25.46-9.39 26.06-10.43 26.65-11.47 26.88-12.78L26.88-12.78 35.76-12.73Q35.53-10.32 34.37-7.97 33.2-5.63 31.18-3.7 29.15-1.78 26.25-0.64 23.35 0.5 19.6 0.5L19.6 0.5Q14.67 0.5 10.77-1.68 6.87-3.85 4.62-8.03 2.36-12.2 2.36-18.18L2.36-18.18Q2.36-24.18 4.65-28.36 6.94-32.53 10.85-34.69 14.75-36.86 19.6-36.86L19.6-36.86Q22.9-36.86 25.71-35.95 28.52-35.03 30.65-33.28 32.78-31.53 34.11-29 35.44-26.46 35.76-23.19ZM53.5 0.51L53.5 0.51Q49.2 0.51 46.12-1.25 43.04-3.02 41.38-6.19 39.72-9.36 39.72-13.55L39.72-13.55Q39.72-17.76 41.38-20.93 43.04-24.09 46.12-25.86 49.2-27.63 53.5-27.63L53.5-27.63Q57.79-27.63 60.87-25.86 63.95-24.09 65.61-20.93 67.27-17.76 67.27-13.55L67.27-13.55Q67.27-9.36 65.61-6.19 63.95-3.02 60.87-1.25 57.79 0.51 53.5 0.51ZM53.55-6.04L53.55-6.04Q55.11-6.04 56.19-7 57.28-7.95 57.85-9.66 58.43-11.36 58.43-13.6L58.43-13.6Q58.43-15.87 57.85-17.58 57.28-19.28 56.19-20.24 55.11-21.2 53.55-21.2L53.55-21.2Q51.93-21.2 50.82-20.24 49.71-19.28 49.14-17.58 48.56-15.87 48.56-13.6L48.56-13.6Q48.56-11.36 49.14-9.66 49.71-7.95 50.82-7 51.93-6.04 53.55-6.04ZM80.41 0L71.73 0 71.73-27.27 80.16-27.27 80.16-22.3 80.45-22.3Q81.19-25 82.88-26.32 84.57-27.65 86.8-27.65L86.8-27.65Q87.41-27.65 88.05-27.57 88.68-27.49 89.24-27.33L89.24-27.33 89.24-19.78Q88.61-19.99 87.61-20.12 86.61-20.24 85.83-20.24L85.83-20.24Q84.28-20.24 83.05-19.56 81.81-18.87 81.11-17.66 80.41-16.44 80.41-14.81L80.41-14.81 80.41 0ZM105.53 0.51L105.53 0.51Q101.25 0.51 98.15-1.18 95.06-2.88 93.4-6.03 91.74-9.18 91.74-13.53L91.74-13.53Q91.74-17.76 93.41-20.93 95.07-24.09 98.11-25.86 101.15-27.63 105.27-27.63L105.27-27.63Q108.18-27.63 110.59-26.72 113.01-25.82 114.77-24.04 116.52-22.27 117.5-19.66 118.48-17.06 118.48-13.71L118.48-13.71 118.48-11.54 94.77-11.54 94.77-16.58 110.4-16.58Q110.38-17.97 109.74-19.05 109.1-20.13 107.99-20.75 106.88-21.36 105.44-21.36L105.44-21.36Q103.99-21.36 102.83-20.71 101.68-20.06 101-18.95 100.33-17.84 100.29-16.44L100.29-16.44 100.29-11.31Q100.29-9.64 100.95-8.39 101.61-7.14 102.82-6.45 104.02-5.75 105.69-5.75L105.69-5.75Q106.85-5.75 107.79-6.07 108.73-6.39 109.4-7.01 110.08-7.63 110.42-8.54L110.42-8.54 118.39-8.31Q117.89-5.63 116.21-3.65 114.53-1.67 111.82-0.58 109.1 0.51 105.53 0.51ZM142.48 0L133.69 0 133.69-36.36 142.48-36.36 142.48-21.77 156.81-21.77 156.81-36.36 165.58-36.36 165.58 0 156.81 0 156.81-14.61 142.48-14.61 142.48 0ZM183.83 0.51L183.83 0.51Q179.55 0.51 176.45-1.18 173.35-2.88 171.69-6.03 170.03-9.18 170.03-13.53L170.03-13.53Q170.03-17.76 171.7-20.93 173.37-24.09 176.41-25.86 179.44-27.63 183.56-27.63L183.56-27.63Q186.47-27.63 188.89-26.72 191.3-25.82 193.06-24.04 194.82-22.27 195.79-19.66 196.77-17.06 196.77-13.71L196.77-13.71 196.77-11.54 173.07-11.54 173.07-16.58 188.69-16.58Q188.67-17.97 188.04-19.05 187.4-20.13 186.29-20.75 185.18-21.36 183.74-21.36L183.74-21.36Q182.28-21.36 181.13-20.71 179.97-20.06 179.3-18.95 178.62-17.84 178.59-16.44L178.59-16.44 178.59-11.31Q178.59-9.64 179.25-8.39 179.9-7.14 181.11-6.45 182.32-5.75 183.99-5.75L183.99-5.75Q185.14-5.75 186.08-6.07 187.02-6.39 187.7-7.01 188.37-7.63 188.71-8.54L188.71-8.54 196.68-8.31Q196.19-5.63 194.51-3.65 192.83-1.67 190.11-0.58 187.4 0.51 183.83 0.51ZM208.91 0.46L208.91 0.46Q206.3 0.46 204.29-0.42 202.27-1.3 201.11-3.08 199.95-4.87 199.95-7.56L199.95-7.56Q199.95-9.84 200.75-11.4 201.55-12.96 202.95-13.94 204.35-14.91 206.18-15.42 208.01-15.93 210.09-16.1L210.09-16.1Q212.41-16.32 213.83-16.56 215.25-16.8 215.9-17.25 216.55-17.7 216.55-18.54L216.55-18.54 216.55-18.63Q216.55-19.99 215.61-20.74 214.67-21.48 213.07-21.48L213.07-21.48Q211.35-21.48 210.3-20.74 209.25-19.99 208.97-18.68L208.97-18.68 200.96-18.96Q201.31-21.45 202.8-23.41 204.28-25.37 206.88-26.5 209.48-27.63 213.14-27.63L213.14-27.63Q215.75-27.63 217.95-27.02 220.15-26.4 221.79-25.24 223.42-24.08 224.32-22.39 225.21-20.7 225.21-18.54L225.21-18.54 225.21 0 217.05 0 217.05-3.8 216.83-3.8Q216.1-2.41 214.98-1.46 213.85-0.5 212.33-0.02 210.81 0.46 208.91 0.46ZM211.59-5.22L211.59-5.22Q213-5.22 214.12-5.79 215.25-6.36 215.93-7.36 216.6-8.36 216.6-9.69L216.6-9.69 216.6-12.29Q216.23-12.09 215.71-11.93 215.18-11.77 214.56-11.63 213.94-11.49 213.28-11.38 212.62-11.27 212.02-11.19L212.02-11.19Q210.8-10.99 209.93-10.58 209.07-10.17 208.62-9.53 208.17-8.88 208.17-7.99L208.17-7.99Q208.17-6.64 209.14-5.93 210.1-5.22 211.59-5.22ZM230.5-36.36L239.18-36.36 239.18 0 230.5 0 230.5-36.36ZM242.88-27.27L260.08-27.27 260.08-20.88 242.88-20.88 242.88-27.27ZM246.48-7.62L246.48-33.81 255.16-33.81 255.16-8.58Q255.16-7.78 255.42-7.29 255.68-6.8 256.17-6.6 256.67-6.39 257.36-6.39L257.36-6.39Q257.86-6.39 258.42-6.49 258.98-6.59 259.26-6.66L259.26-6.66 260.58-0.39Q259.96-0.21 258.83 0.05 257.7 0.32 256.14 0.39L256.14 0.39Q253.08 0.53 250.91-0.33 248.73-1.19 247.59-3.02 246.44-4.85 246.48-7.62L246.48-7.62ZM273.2-15.55L273.2-15.55 273.2 0 264.52 0 264.52-36.36 272.92-36.36 272.92-22.27 273.22-22.27Q274.14-24.79 276.24-26.21 278.35-27.63 281.4-27.63L281.4-27.63Q284.28-27.63 286.41-26.36 288.54-25.09 289.72-22.78 290.9-20.47 290.88-17.38L290.88-17.38 290.88 0 282.2 0 282.2-15.68Q282.22-17.95 281.07-19.23 279.91-20.51 277.82-20.51L277.82-20.51Q276.45-20.51 275.41-19.91 274.37-19.32 273.79-18.22 273.22-17.12 273.2-15.55ZM340.04-23.19L340.04-23.19 331.17-23.19Q330.99-24.56 330.44-25.66 329.89-26.76 328.98-27.54 328.08-28.32 326.84-28.74 325.61-29.15 324.12-29.15L324.12-29.15Q321.47-29.15 319.56-27.86 317.65-26.56 316.63-24.11 315.61-21.66 315.61-18.18L315.61-18.18Q315.61-14.56 316.65-12.12 317.69-9.68 319.58-8.44 321.47-7.21 324.06-7.21L324.06-7.21Q325.52-7.21 326.72-7.58 327.92-7.95 328.83-8.67 329.75-9.39 330.34-10.43 330.94-11.47 331.17-12.78L331.17-12.78 340.04-12.73Q339.81-10.32 338.65-7.97 337.49-5.63 335.46-3.7 333.44-1.78 330.54-0.64 327.63 0.5 323.89 0.5L323.89 0.5Q318.95 0.5 315.05-1.68 311.16-3.85 308.9-8.03 306.65-12.2 306.65-18.18L306.65-18.18Q306.65-24.18 308.94-28.36 311.23-32.53 315.13-34.69 319.04-36.86 323.89-36.86L323.89-36.86Q327.19-36.86 329.99-35.95 332.8-35.03 334.93-33.28 337.06-31.53 338.39-29 339.72-26.46 340.04-23.19ZM357.78 0.51L357.78 0.51Q353.48 0.51 350.4-1.25 347.32-3.02 345.66-6.19 344-9.36 344-13.55L344-13.55Q344-17.76 345.66-20.93 347.32-24.09 350.4-25.86 353.48-27.63 357.78-27.63L357.78-27.63Q362.08-27.63 365.16-25.86 368.24-24.09 369.9-20.93 371.56-17.76 371.56-13.55L371.56-13.55Q371.56-9.36 369.9-6.19 368.24-3.02 365.16-1.25 362.08 0.51 357.78 0.51ZM357.83-6.04L357.83-6.04Q359.4-6.04 360.48-7 361.56-7.95 362.14-9.66 362.72-11.36 362.72-13.6L362.72-13.6Q362.72-15.87 362.14-17.58 361.56-19.28 360.48-20.24 359.4-21.2 357.83-21.2L357.83-21.2Q356.22-21.2 355.11-20.24 354-19.28 353.42-17.58 352.84-15.87 352.84-13.6L352.84-13.6Q352.84-11.36 353.42-9.66 354-7.95 355.11-7 356.22-6.04 357.83-6.04ZM384.7-15.55L384.7-15.55 384.7 0 376.01 0 376.01-27.27 384.27-27.27 384.27-22.27 384.57-22.27Q385.48-24.77 387.66-26.2 389.84-27.63 392.86-27.63L392.86-27.63Q395.74-27.63 397.86-26.34 399.98-25.05 401.16-22.75 402.34-20.45 402.33-17.38L402.33-17.38 402.33 0 393.64 0 393.64-15.68Q393.66-17.95 392.5-19.23 391.34-20.51 389.28-20.51L389.28-20.51Q387.91-20.51 386.87-19.91 385.83-19.32 385.27-18.22 384.71-17.12 384.7-15.55ZM420.45 0.51L420.45 0.51Q416.14 0.51 413.06-1.26 409.98-3.04 408.33-6.21 406.67-9.38 406.67-13.55L406.67-13.55Q406.67-17.74 408.33-20.91 409.99-24.08 413.08-25.85 416.16-27.63 420.43-27.63L420.43-27.63Q424.22-27.63 427.03-26.26 429.85-24.89 431.43-22.4 433.02-19.9 433.11-16.55L433.11-16.55 425-16.55Q424.75-18.64 423.59-19.83 422.42-21.02 420.56-21.02L420.56-21.02Q419.05-21.02 417.91-20.18 416.78-19.34 416.15-17.69 415.52-16.05 415.52-13.64L415.52-13.64Q415.52-11.22 416.15-9.56 416.78-7.9 417.91-7.06 419.05-6.21 420.56-6.21L420.56-6.21Q421.77-6.21 422.7-6.73 423.63-7.24 424.23-8.25 424.84-9.25 425-10.69L425-10.69 433.11-10.69Q432.99-7.32 431.43-4.79 429.88-2.27 427.08-0.88 424.29 0.51 420.45 0.51ZM450.32 0.51L450.32 0.51Q446.04 0.51 442.94-1.18 439.84-2.88 438.18-6.03 436.52-9.18 436.52-13.53L436.52-13.53Q436.52-17.76 438.19-20.93 439.86-24.09 442.89-25.86 445.93-27.63 450.05-27.63L450.05-27.63Q452.96-27.63 455.38-26.72 457.79-25.82 459.55-24.04 461.31-22.27 462.28-19.66 463.26-17.06 463.26-13.71L463.26-13.71 463.26-11.54 439.56-11.54 439.56-16.58 455.18-16.58Q455.16-17.97 454.52-19.05 453.88-20.13 452.77-20.75 451.66-21.36 450.23-21.36L450.23-21.36Q448.77-21.36 447.62-20.71 446.46-20.06 445.79-18.95 445.11-17.84 445.08-16.44L445.08-16.44 445.08-11.31Q445.08-9.64 445.73-8.39 446.39-7.14 447.6-6.45 448.81-5.75 450.47-5.75L450.47-5.75Q451.63-5.75 452.57-6.07 453.51-6.39 454.19-7.01 454.86-7.63 455.2-8.54L455.2-8.54 463.17-8.31Q462.67-5.63 461-3.65 459.32-1.67 456.6-0.58 453.88 0.51 450.32 0.51ZM476.4 10.23L467.71 10.23 467.71-27.27 476.31-27.27 476.31-22.6 476.57-22.6Q477.11-23.85 478.09-25 479.08-26.15 480.61-26.89 482.15-27.63 484.3-27.63L484.3-27.63Q487.14-27.63 489.61-26.14 492.09-24.64 493.62-21.54 495.15-18.43 495.15-13.62L495.15-13.62Q495.15-8.98 493.68-5.86 492.22-2.73 489.74-1.17 487.26 0.39 484.24 0.39L484.24 0.39Q482.18 0.39 480.67-0.28 479.17-0.96 478.14-2.06 477.12-3.16 476.57-4.42L476.57-4.42 476.4-4.42 476.4 10.23ZM476.22-13.64L476.22-13.64Q476.22-11.43 476.81-9.8 477.41-8.17 478.54-7.27 479.66-6.37 481.24-6.37L481.24-6.37Q482.84-6.37 483.96-7.27 485.08-8.17 485.66-9.8 486.23-11.43 486.23-13.64L486.23-13.64Q486.23-15.84 485.66-17.45 485.08-19.07 483.97-19.96 482.86-20.85 481.24-20.85L481.24-20.85Q479.65-20.85 478.53-19.98 477.41-19.11 476.81-17.49 476.22-15.87 476.22-13.64ZM497.9-27.27L515.1-27.27 515.1-20.88 497.9-20.88 497.9-27.27ZM501.5-7.62L501.5-33.81 510.18-33.81 510.18-8.58Q510.18-7.78 510.44-7.29 510.7-6.8 511.19-6.6 511.69-6.39 512.38-6.39L512.38-6.39Q512.88-6.39 513.44-6.49 514-6.59 514.28-6.66L514.28-6.66 515.6-0.39Q514.98-0.21 513.85 0.05 512.72 0.32 511.16 0.39L511.16 0.39Q508.1 0.53 505.93-0.33 503.75-1.19 502.61-3.02 501.46-4.85 501.5-7.62L501.5-7.62ZM543.35-18.95L543.35-18.95 535.38-18.73Q535.25-19.58 534.7-20.25 534.15-20.92 533.27-21.3 532.39-21.68 531.24-21.68L531.24-21.68Q529.73-21.68 528.67-21.08 527.62-20.47 527.63-19.44L527.63-19.44Q527.62-18.64 528.28-18.06 528.95-17.47 530.67-17.12L530.67-17.12 535.93-16.12Q540.01-15.34 542.01-13.53 544-11.72 544.02-8.74L544.02-8.74Q544-5.93 542.36-3.85 540.72-1.78 537.88-0.63 535.04 0.51 531.38 0.51L531.38 0.51Q525.54 0.51 522.17-1.89 518.81-4.3 518.33-8.35L518.33-8.35 526.91-8.56Q527.19-7.07 528.38-6.29 529.57-5.5 531.42-5.5L531.42-5.5Q533.08-5.5 534.13-6.13 535.18-6.75 535.2-7.78L535.2-7.78Q535.18-8.7 534.38-9.26 533.58-9.82 531.88-10.14L531.88-10.14 527.12-11.04Q523.02-11.79 521.01-13.81 519-15.82 519.02-18.95L519.02-18.95Q519-21.68 520.48-23.62 521.95-25.57 524.67-26.6 527.39-27.63 531.08-27.63L531.08-27.63Q536.62-27.63 539.81-25.31 543.01-22.99 543.35-18.95Z" opacity="1" transform="matrix(1,0,0,1,0,0)" fill="#0d1321" class="wordmark-text-0" data-fill-palette-color="primary" id="text-0"></path></svg></g></svg></g><g transform="matrix(1,0,0,1,0,42.49708778678554)"><svg viewBox="0 0 395.52 21.659805146022485" height="21.659805146022485" width="395.52"><g transform="matrix(1,0,0,1,0,0)"><svg width="395.52" viewBox="4.4 -37.5 871.53 47.730000000000004" height="21.659805146022485" data-palette-color="#0891b2"><path d="M8.81 0L4.4 0 4.4-36.36 8.81-36.36 8.81-20.17 28.2-20.17 28.2-36.36 32.6-36.36 32.6 0 28.2 0 28.2-16.26 8.81-16.26 8.81 0ZM75.38 0.57L75.38 0.57Q71.44 0.57 68.59-1.18 65.74-2.93 64.21-6.08 62.67-9.23 62.67-13.42L62.67-13.42Q62.67-17.61 64.21-20.82 65.74-24.02 68.5-25.83 71.26-27.63 74.96-27.63L74.96-27.63Q77.09-27.63 79.17-26.92 81.24-26.21 82.95-24.62 84.65-23.03 85.66-20.42 86.68-17.81 86.68-13.99L86.68-13.99 86.68-12.22 65.65-12.22 65.65-15.84 82.41-15.84Q82.41-18.15 81.5-19.96 80.59-21.77 78.91-22.82 77.23-23.86 74.96-23.86L74.96-23.86Q72.45-23.86 70.63-22.63 68.81-21.4 67.84-19.42 66.86-17.45 66.86-15.2L66.86-15.2 66.86-12.78Q66.86-9.69 67.93-7.56 69.01-5.42 70.93-4.31 72.84-3.2 75.38-3.2L75.38-3.2Q77.03-3.2 78.37-3.67 79.72-4.14 80.69-5.09 81.67-6.04 82.2-7.46L82.2-7.46 86.25-6.32Q85.61-4.26 84.1-2.71 82.59-1.15 80.37-0.29 78.15 0.57 75.38 0.57ZM124.2 0.64L124.2 0.64Q121.61 0.64 119.5-0.35 117.39-1.33 116.14-3.2 114.9-5.08 114.9-7.74L114.9-7.74Q114.9-10.09 115.82-11.55 116.75-13.01 118.29-13.85 119.84-14.68 121.71-15.1 123.58-15.52 125.48-15.77L125.48-15.77Q127.97-16.09 129.52-16.26 131.08-16.42 131.79-16.83 132.51-17.24 132.51-18.25L132.51-18.25 132.51-18.39Q132.51-21.02 131.08-22.48 129.65-23.93 126.76-23.93L126.76-23.93Q123.76-23.93 122.06-22.62 120.35-21.31 119.66-19.82L119.66-19.82 115.68-21.24Q116.75-23.72 118.53-25.12 120.32-26.51 122.44-27.07 124.56-27.63 126.62-27.63L126.62-27.63Q127.93-27.63 129.65-27.32 131.36-27.01 132.97-26.05 134.57-25.09 135.64-23.15 136.7-21.22 136.7-17.97L136.7-17.97 136.7 0 132.51 0 132.51-3.69 132.3-3.69Q131.87-2.81 130.88-1.79 129.89-0.78 128.23-0.07 126.58 0.64 124.2 0.64ZM124.84-3.13L124.84-3.13Q127.33-3.13 129.04-4.1 130.76-5.08 131.63-6.62 132.51-8.17 132.51-9.87L132.51-9.87 132.51-13.71Q132.25-13.39 131.35-13.13 130.45-12.87 129.29-12.69 128.13-12.5 127.04-12.37 125.94-12.23 125.27-12.14L125.27-12.14Q123.64-11.93 122.22-11.46 120.81-10.99 119.95-10.06 119.09-9.13 119.09-7.53L119.09-7.53Q119.09-5.34 120.71-4.23 122.34-3.13 124.84-3.13ZM167.48-36.36L171.67-36.36 171.67 0 167.48 0 167.48-36.36ZM200.18-27.27L214.32-27.27 214.32-23.72 200.18-23.72 200.18-27.27ZM204.3-6.68L204.3-33.81 208.49-33.81 208.49-7.81Q208.49-6.04 209.02-5.16 209.54-4.28 210.37-3.99 211.19-3.69 212.11-3.69L212.11-3.69Q212.81-3.69 213.25-3.77 213.7-3.85 213.96-3.91L213.96-3.91 214.81-0.14Q214.39 0.02 213.62 0.19 212.86 0.36 211.69 0.36L211.69 0.36Q209.91 0.36 208.22-0.41 206.52-1.17 205.41-2.73 204.3-4.3 204.3-6.68L204.3-6.68ZM247.94-16.41L247.94-16.41 247.94 0 243.75 0 243.75-36.36 247.94-36.36 247.94-23.01 248.29-23.01Q249.25-25.12 251.18-26.38 253.11-27.63 256.32-27.63L256.32-27.63Q259.11-27.63 261.2-26.52 263.3-25.41 264.46-23.13 265.62-20.85 265.62-17.33L265.62-17.33 265.62 0 261.43 0 261.43-17.05Q261.43-20.29 259.75-22.08 258.08-23.86 255.11-23.86L255.11-23.86Q253.05-23.86 251.43-22.99 249.8-22.12 248.87-20.45 247.94-18.79 247.94-16.41ZM307.48 0.57L307.48 0.57Q303.65 0.57 300.88-1.24 298.11-3.05 296.62-6.23 295.13-9.41 295.13-13.49L295.13-13.49Q295.13-17.65 296.66-20.84 298.2-24.02 300.96-25.83 303.72-27.63 307.41-27.63L307.41-27.63Q310.29-27.63 312.6-26.56 314.91-25.5 316.38-23.58 317.85-21.66 318.21-19.11L318.21-19.11 314.02-19.11Q313.54-20.97 311.9-22.42 310.25-23.86 307.48-23.86L307.48-23.86Q305.03-23.86 303.2-22.59 301.36-21.32 300.34-19.03 299.32-16.73 299.32-13.64L299.32-13.64Q299.32-10.48 300.32-8.13 301.32-5.79 303.16-4.49 305-3.2 307.48-3.2L307.48-3.2Q309.12-3.2 310.45-3.76 311.78-4.33 312.7-5.4 313.63-6.46 314.02-7.95L314.02-7.95 318.21-7.95Q317.85-5.54 316.46-3.61 315.06-1.69 312.78-0.56 310.5 0.57 307.48 0.57ZM355.45 0.64L355.45 0.64Q352.86 0.64 350.75-0.35 348.63-1.33 347.39-3.2 346.15-5.08 346.15-7.74L346.15-7.74Q346.15-10.09 347.07-11.55 347.99-13.01 349.54-13.85 351.08-14.68 352.96-15.1 354.83-15.52 356.73-15.77L356.73-15.77Q359.22-16.09 360.77-16.26 362.32-16.42 363.04-16.83 363.76-17.24 363.76-18.25L363.76-18.25 363.76-18.39Q363.76-21.02 362.33-22.48 360.9-23.93 358.01-23.93L358.01-23.93Q355.01-23.93 353.3-22.62 351.6-21.31 350.91-19.82L350.91-19.82 346.93-21.24Q347.99-23.72 349.78-25.12 351.56-26.51 353.68-27.07 355.81-27.63 357.87-27.63L357.87-27.63Q359.18-27.63 360.89-27.32 362.61-27.01 364.21-26.05 365.82-25.09 366.89-23.15 367.95-21.22 367.95-17.97L367.95-17.97 367.95 0 363.76 0 363.76-3.69 363.55-3.69Q363.12-2.81 362.13-1.79 361.13-0.78 359.48-0.07 357.83 0.64 355.45 0.64ZM356.09-3.13L356.09-3.13Q358.58-3.13 360.29-4.1 362-5.08 362.88-6.62 363.76-8.17 363.76-9.87L363.76-9.87 363.76-13.71Q363.49-13.39 362.6-13.13 361.7-12.87 360.54-12.69 359.38-12.5 358.28-12.37 357.19-12.23 356.52-12.14L356.52-12.14Q354.88-11.93 353.47-11.46 352.06-10.99 351.2-10.06 350.34-9.13 350.34-7.53L350.34-7.53Q350.34-5.34 351.96-4.23 353.59-3.13 356.09-3.13ZM402.92 0L398.73 0 398.73-27.27 402.78-27.27 402.78-23.15 403.06-23.15Q403.81-25.18 405.76-26.44 407.72-27.7 410.17-27.7L410.17-27.7Q410.63-27.7 411.32-27.68 412.01-27.66 412.37-27.63L412.37-27.63 412.37-23.37Q412.16-23.42 411.4-23.54 410.65-23.65 409.81-23.65L409.81-23.65Q407.82-23.65 406.27-22.82 404.72-22 403.82-20.55 402.92-19.11 402.92-17.26L402.92-17.26 402.92 0ZM451.89 0.57L451.89 0.57Q447.94 0.57 445.09-1.18 442.24-2.93 440.71-6.08 439.17-9.23 439.17-13.42L439.17-13.42Q439.17-17.61 440.71-20.82 442.24-24.02 445.01-25.83 447.77-27.63 451.46-27.63L451.46-27.63Q453.59-27.63 455.67-26.92 457.74-26.21 459.45-24.62 461.15-23.03 462.17-20.42 463.18-17.81 463.18-13.99L463.18-13.99 463.18-12.22 442.16-12.22 442.16-15.84 458.92-15.84Q458.92-18.15 458-19.96 457.09-21.77 455.41-22.82 453.73-23.86 451.46-23.86L451.46-23.86Q448.96-23.86 447.14-22.63 445.32-21.4 444.34-19.42 443.36-17.45 443.36-15.2L443.36-15.2 443.36-12.78Q443.36-9.69 444.44-7.56 445.51-5.42 447.43-4.31 449.35-3.2 451.89-3.2L451.89-3.2Q453.54-3.2 454.88-3.67 456.22-4.14 457.19-5.09 458.17-6.04 458.7-7.46L458.7-7.46 462.75-6.32Q462.11-4.26 460.6-2.71 459.09-1.15 456.87-0.29 454.66 0.57 451.89 0.57ZM551.73 0L530.42 0 530.42-36.36 534.82-36.36 534.82-3.91 551.73-3.91 551.73 0ZM585.28 0L581.09 0 581.09-27.27 585.28-27.27 585.28 0ZM583.22-31.82L583.22-31.82Q581.99-31.82 581.12-32.65 580.24-33.49 580.24-34.66L580.24-34.66Q580.24-35.83 581.12-36.67 581.99-37.5 583.22-37.5L583.22-37.5Q584.44-37.5 585.32-36.67 586.2-35.83 586.2-34.66L586.2-34.66Q586.2-33.49 585.32-32.65 584.44-31.82 583.22-31.82ZM613.79-27.27L627.92-27.27 627.92-23.72 613.79-23.72 613.79-27.27ZM617.91-6.68L617.91-33.81 622.1-33.81 622.1-7.81Q622.1-6.04 622.62-5.16 623.14-4.28 623.97-3.99 624.8-3.69 625.72-3.69L625.72-3.69Q626.41-3.69 626.86-3.77 627.3-3.85 627.57-3.91L627.57-3.91 628.42-0.14Q627.99 0.02 627.23 0.19 626.46 0.36 625.29 0.36L625.29 0.36Q623.52 0.36 621.82-0.41 620.13-1.17 619.02-2.73 617.91-4.3 617.91-6.68L617.91-6.68ZM668.79 0.57L668.79 0.57Q664.84 0.57 662-1.18 659.15-2.93 657.61-6.08 656.07-9.23 656.07-13.42L656.07-13.42Q656.07-17.61 657.61-20.82 659.15-24.02 661.91-25.83 664.67-27.63 668.36-27.63L668.36-27.63Q670.49-27.63 672.57-26.92 674.65-26.21 676.35-24.62 678.06-23.03 679.07-20.42 680.08-17.81 680.08-13.99L680.08-13.99 680.08-12.22 659.06-12.22 659.06-15.84 675.82-15.84Q675.82-18.15 674.9-19.96 673.99-21.77 672.31-22.82 670.63-23.86 668.36-23.86L668.36-23.86Q665.86-23.86 664.04-22.63 662.22-21.4 661.24-19.42 660.26-17.45 660.26-15.2L660.26-15.2 660.26-12.78Q660.26-9.69 661.34-7.56 662.41-5.42 664.33-4.31 666.25-3.2 668.79-3.2L668.79-3.2Q670.44-3.2 671.78-3.67 673.12-4.14 674.1-5.09 675.07-6.04 675.6-7.46L675.6-7.46 679.65-6.32Q679.01-4.26 677.5-2.71 676-1.15 673.78-0.29 671.56 0.57 668.79 0.57ZM713.77 0L709.58 0 709.58-27.27 713.63-27.27 713.63-23.15 713.91-23.15Q714.66-25.18 716.61-26.44 718.57-27.7 721.02-27.7L721.02-27.7Q721.48-27.7 722.17-27.68 722.86-27.66 723.22-27.63L723.22-27.63 723.22-23.37Q723-23.42 722.25-23.54 721.5-23.65 720.66-23.65L720.66-23.65Q718.67-23.65 717.12-22.82 715.57-22 714.67-20.55 713.77-19.11 713.77-17.26L713.77-17.26 713.77 0ZM759.33 0.64L759.33 0.64Q756.73 0.64 754.62-0.35 752.51-1.33 751.26-3.2 750.02-5.08 750.02-7.74L750.02-7.74Q750.02-10.09 750.94-11.55 751.87-13.01 753.41-13.85 754.96-14.68 756.83-15.1 758.7-15.52 760.6-15.77L760.6-15.77Q763.09-16.09 764.64-16.26 766.2-16.42 766.92-16.83 767.64-17.24 767.64-18.25L767.64-18.25 767.64-18.39Q767.64-21.02 766.21-22.48 764.78-23.93 761.88-23.93L761.88-23.93Q758.88-23.93 757.18-22.62 755.47-21.31 754.78-19.82L754.78-19.82 750.8-21.24Q751.87-23.72 753.65-25.12 755.44-26.51 757.56-27.07 759.68-27.63 761.74-27.63L761.74-27.63Q763.05-27.63 764.77-27.32 766.48-27.01 768.09-26.05 769.69-25.09 770.76-23.15 771.83-21.22 771.83-17.97L771.83-17.97 771.83 0 767.64 0 767.64-3.69 767.42-3.69Q767-2.81 766-1.79 765.01-0.78 763.36-0.07 761.7 0.64 759.33 0.64ZM759.96-3.13L759.96-3.13Q762.45-3.13 764.16-4.1 765.88-5.08 766.76-6.62 767.64-8.17 767.64-9.87L767.64-9.87 767.64-13.71Q767.37-13.39 766.47-13.13 765.58-12.87 764.41-12.69 763.25-12.5 762.16-12.37 761.07-12.23 760.39-12.14L760.39-12.14Q758.76-11.93 757.35-11.46 755.93-10.99 755.07-10.06 754.21-9.13 754.21-7.53L754.21-7.53Q754.21-5.34 755.84-4.23 757.46-3.13 759.96-3.13ZM813.69 0.57L813.69 0.57Q809.85 0.57 807.08-1.24 804.31-3.05 802.82-6.23 801.33-9.41 801.33-13.49L801.33-13.49Q801.33-17.65 802.86-20.84 804.4-24.02 807.16-25.83 809.92-27.63 813.61-27.63L813.61-27.63Q816.49-27.63 818.8-26.56 821.11-25.5 822.58-23.58 824.06-21.66 824.41-19.11L824.41-19.11 820.22-19.11Q819.74-20.97 818.1-22.42 816.46-23.86 813.69-23.86L813.69-23.86Q811.24-23.86 809.4-22.59 807.56-21.32 806.54-19.03 805.52-16.73 805.52-13.64L805.52-13.64Q805.52-10.48 806.52-8.13 807.52-5.79 809.36-4.49 811.2-3.2 813.69-3.2L813.69-3.2Q815.32-3.2 816.65-3.76 817.98-4.33 818.91-5.4 819.83-6.46 820.22-7.95L820.22-7.95 824.41-7.95Q824.06-5.54 822.66-3.61 821.27-1.69 818.99-0.56 816.7 0.57 813.69 0.57ZM856.33 10.23L856.33 10.23Q855.26 10.23 854.43 10.06 853.59 9.89 853.27 9.73L853.27 9.73 854.34 6.04Q855.87 6.43 857.04 6.32 858.21 6.21 859.12 5.28 860.04 4.35 860.8 2.27L860.8 2.27 861.58 0.14 851.5-27.27 856.04-27.27 863.57-5.54 863.86-5.54 871.38-27.27 875.93-27.27 864.35 3.98Q863.57 6.09 862.42 7.48 861.26 8.88 859.75 9.55 858.23 10.23 856.33 10.23Z" opacity="1" transform="matrix(1,0,0,1,0,0)" fill="#0891b2" class="slogan-text-1" data-fill-palette-color="secondary" id="text-1"></path></svg></g></svg></g></svg></g></svg></g><g><svg viewBox="0 0 86.42638272067519 88.66482603314068" height="88.66482603314068" width="86.42638272067519"><g><svg xmlns="http://www.w3.org/2000/svg" xmlns:xlink="http://www.w3.org/1999/xlink" version="1.1" x="0" y="0" viewBox="3 4.527 90 92.331" enable-background="new 0 0 100 100" xml:space="preserve" height="88.66482603314068" width="86.42638272067519" class="icon-icon-0" data-fill-palette-color="accent" id="icon-0"><path d="M90 25.642L78 32.286 66 25.642V11.171L78 4.527 85 8V9H82V11L78 9.1 70 13.529V23.285L78 27.714 86 23.285V19H90" fill="#0d1321" data-fill-palette-color="accent"></path><path d="M43.5 92.611C32.559 92.611 24 83.758 24 72.877V45.872C24 34.992 32.559 26.139 43.5 26.139S63 34.993 63 45.872V72.877C63 83.759 54.441 92.611 43.5 92.611M43.5 31.1C35.294 31.1 30 37.726 30 45.872V72.877C30 81.023 35.294 87.65 43.5 87.65 51.707 87.65 57 81.023 57 72.877V45.872C57 37.727 51.707 31.1 43.5 31.1" fill="#0d1321" data-fill-palette-color="accent"></path><path d="M74.433 60.863C78.401 60.863 84.355 65.75 84.355 71.776S79.47 82.69 73.441 82.69C67.414 82.69 62.528 77.803 62.528 71.776" fill="#0d1321" data-fill-palette-color="accent"></path><polygon points="77.684,66.604 58.834,41.786 61.69,39.065 82.369,65.825 " fill="#0d1321" data-fill-palette-color="accent"></polygon><path d="M61.536 46.973C61.536 37.11 53.539 29.116 43.677 29.116 33.813 29.116 25.819 37.111 25.819 46.973" fill="#0d1321" data-fill-palette-color="accent"></path><rect x="29" y="51" width="32" height="6" fill="#0d1321" data-fill-palette-color="accent"></rect><rect x="29" y="60" width="32" height="6" fill="#0d1321" data-fill-palette-color="accent"></rect><rect x="29" y="69" width="32" height="6" fill="#0d1321" data-fill-palette-color="accent"></rect><path d="M12.921 60.863C8.952 60.863 3 65.75 3 71.776 3 77.804 7.885 82.69 13.914 82.69S24.827 77.803 24.827 71.776" fill="#0d1321" data-fill-palette-color="accent"></path><polygon points="9.749,66.138 4.984,65.825 25.664,39.065 28.599,41.319 " fill="#0d1321" data-fill-palette-color="accent"></polygon><g fill="#0d1321" data-fill-palette-color="accent"><polyline points="38.716,90.131 43.677,96.085 48.638,90.131  " fill="#0d1321" data-fill-palette-color="accent"></polyline><polygon points="43.677,96.858 38.335,90.449 39.098,89.813 43.677,95.308 48.256,89.813 49.02,90.449  " fill="#0d1321" data-fill-palette-color="accent"></polygon></g><rect x="30.618" y="23.659" transform="matrix(0.3162 0.9487 -0.9487 0.3162 47.8785 -14.1505)" width="6.275" height="4.96" fill="#0d1321" data-fill-palette-color="accent"></rect><rect x="51.117" y="23.002" transform="matrix(0.9486 0.3163 -0.3163 0.9486 11.0214 -15.613)" width="4.961" height="6.273" fill="#0d1321" data-fill-palette-color="accent"></rect><polygon points="90,8 90,11 93,11 93,14 90,14 90,17 87,17 87,14 84,14 84,11 87,11 87,8 " fill="#0d1321" data-fill-palette-color="accent"></polygon></svg></g></svg></g></svg></g><defs></defs></svg><rect width="395.52" height="71.55962466558908" fill="none" stroke="none" visibility="hidden"></rect></g></svg></g></svg>